<svg width="90" height="17" viewBox="0 0 90 17" fill="none" xmlns="http://www.w3.org/2000/svg">
<g clip-path="url(#clip0_961_205)">
<path fill-rule="evenodd" clip-rule="evenodd" d="M5.53987 13.515L5.42538 13.7781C4.62397 15.8082 3.86072 16.4285 2.9639 16.5225C3.21195 16.2969 3.44093 15.921 3.44093 15.4323C3.44093 14.7368 2.90665 14.2105 2.23881 14.2105C1.43739 14.2105 0.979445 14.8496 0.979445 15.4699C0.979445 16.3533 1.62821 16.9172 2.73492 16.9172C3.82255 16.9172 4.83386 16.2593 5.76884 14.0225L9.10807 6.12776C9.48969 5.18791 10.1194 4.77438 10.8826 4.69919V4.47362H7.19994V4.69919C8.59287 4.88716 8.89817 5.33829 8.38298 6.61648L6.72291 10.7518L4.52856 5.71423C4.24234 5.05633 4.43315 4.79317 5.52079 4.69919V4.47362H0.273438V4.69919C1.20842 4.83077 1.49464 5.03753 1.91443 5.93979L5.53987 13.515ZM14.3554 13.3082C15.5766 13.3082 16.6261 12.6315 17.4275 11.3721V13.1578H21.2438V12.9323C20.1752 12.8947 19.9271 12.7443 19.9271 12.218V4.43603L16.0536 4.51122V4.73678C17.1031 4.77438 17.3893 5.09392 17.3893 5.65783V10.9586C16.8932 11.7293 16.378 12.1428 15.6911 12.1428C14.718 12.1428 14.2982 11.5037 14.2982 10.3383V4.43603L10.4438 4.51122V4.73678C11.5314 4.75558 11.7604 5.09392 11.7604 5.65783V10.5638C11.7604 12.3872 12.7526 13.3082 14.3554 13.3082ZM27.636 13.1578H32.1582V12.9323C31.3568 12.9135 31.1469 12.7631 31.1469 12.2368V7.03001C31.1469 6.95483 31.1469 6.86084 31.1279 6.72926C31.6812 5.92099 32.33 5.48866 32.8261 5.48866C33.7802 5.48866 34.1427 6.14656 34.1427 7.27438V12.2368C34.1427 12.7631 33.971 12.9135 33.2077 12.9323V13.1578H37.9971V12.9323C36.8904 12.9135 36.6805 12.7631 36.6805 12.2368V7.08641C36.6805 5.31949 35.8791 4.37964 34.2763 4.37964C33.0932 4.37964 31.872 5.16911 31.0897 6.33453C30.8798 5.05633 30.0975 4.37964 28.7618 4.37964C27.5024 4.37964 26.4148 5.11272 25.5943 6.31573V4.43603L21.7589 4.6052V4.83077C22.8657 4.84956 23.0946 5.20671 23.0946 5.77062V12.2368C23.0946 12.7631 22.8657 12.9135 21.7589 12.9323V13.1578H26.5483V12.9323C25.7851 12.9135 25.6324 12.7631 25.6324 12.2368V6.72926C26.1286 5.97738 26.5483 5.48866 27.2353 5.48866C28.1893 5.48866 28.6091 6.14656 28.6091 7.27438V12.2368C28.6091 12.7631 28.4183 12.9135 27.636 12.9323V13.1578ZM57.2501 13.515L57.1356 13.7781C56.3342 15.8082 55.571 16.4285 54.6741 16.5225C54.9222 16.2969 55.1512 15.921 55.1512 15.4323C55.1512 14.7368 54.6169 14.2105 53.9491 14.2105C53.1476 14.2105 52.6897 14.8496 52.6897 15.4699C52.6897 16.3533 53.3385 16.9172 54.4452 16.9172C55.5328 16.9172 56.5441 16.2593 57.4791 14.0225L60.8183 6.12776C61.1999 5.18791 61.8296 4.77438 62.5929 4.69919V4.47362H58.9102V4.69919C60.3031 4.88716 60.6084 5.33829 60.0932 6.61648L58.4332 10.7518L56.2388 5.71423C55.9526 5.05633 56.1434 4.79317 57.231 4.69919V4.47362H51.9837V4.69919C52.9187 4.83077 53.2049 5.03753 53.6247 5.93979L57.2501 13.515ZM66.0657 13.3082C67.2869 13.3082 68.3363 12.6315 69.1377 11.3721V13.1578H72.954V12.9323C71.8855 12.8947 71.6374 12.7443 71.6374 12.218V4.43603L67.7639 4.51122V4.73678C68.8134 4.77438 69.0996 5.09392 69.0996 5.65783V10.9586C68.6035 11.7293 68.0883 12.1428 67.4014 12.1428C66.4282 12.1428 66.0084 11.5037 66.0084 10.3383V4.43603L62.154 4.51122V4.73678C63.2416 4.75558 63.4706 5.09392 63.4706 5.65783V10.5638C63.4706 12.3872 64.4628 13.3082 66.0657 13.3082ZM79.3462 13.1578H83.8685V12.9323C83.0671 12.9135 82.8572 12.7631 82.8572 12.2368V7.03001C82.8572 6.95483 82.8572 6.86084 82.8381 6.72926C83.3915 5.92099 84.0402 5.48866 84.5363 5.48866C85.4904 5.48866 85.8529 6.14656 85.8529 7.27438V12.2368C85.8529 12.7631 85.6812 12.9135 84.918 12.9323V13.1578H89.7074V12.9323C88.6006 12.9135 88.3908 12.7631 88.3908 12.2368V7.08641C88.3908 5.31949 87.5893 4.37964 85.9865 4.37964C84.8035 4.37964 83.5823 5.16911 82.7999 6.33453C82.59 5.05633 81.8077 4.37964 80.472 4.37964C79.2127 4.37964 78.125 5.11272 77.3045 6.31573V4.43603L73.4692 4.6052V4.83077C74.5759 4.84956 74.8049 5.20671 74.8049 5.77062V12.2368C74.8049 12.7631 74.5759 12.9135 73.4692 12.9323V13.1578H78.2586V12.9323C77.4953 12.9135 77.3427 12.7631 77.3427 12.2368V6.72926C77.8388 5.97738 78.2586 5.48866 78.9455 5.48866C79.8996 5.48866 80.3194 6.14656 80.3194 7.27438V12.2368C80.3194 12.7631 80.1286 12.9135 79.3462 12.9323V13.1578Z" fill="black"/>
<g clip-path="url(#clip1_961_205)">
<path fill-rule="evenodd" clip-rule="evenodd" d="M44.3893 0.250732C46.64 0.250732 48.1229 1.49848 48.1229 3.158C48.1229 4.43943 47.2605 5.4585 45.5404 6.23581C46.3988 6.97318 47.1336 7.73475 47.6531 8.44547C48.4557 6.7964 49.5566 5.92742 50.6671 5.92742C51.8337 5.92742 52.6261 6.66862 52.6261 7.74447C52.6261 8.6741 51.8878 9.42993 50.9533 9.42993C50.1259 9.42993 49.4673 8.82539 49.3548 8.04048C48.9991 8.34572 48.6551 8.78777 48.3237 9.3873C49.4417 11.1652 50.1647 11.7357 50.9915 11.7357C51.3114 11.7357 51.5263 11.6526 52.0534 11.3009L52.2842 11.1468L52.4694 11.3521L52.6221 11.5213L52.8111 11.7307L52.6208 11.939C51.5037 13.1617 50.3988 13.7908 49.2551 13.7908C47.9725 13.7908 47.196 13.3101 46.3109 11.9221C45.3383 13.1464 44.0502 13.7908 42.3858 13.7908C40.0583 13.7908 38.4614 12.3553 38.4614 10.3009C38.4614 8.60887 39.5251 7.3531 41.6219 6.55991C40.7339 5.61011 40.3505 4.76966 40.3505 3.7595C40.3505 1.69827 41.9584 0.250732 44.3893 0.250732ZM47.9148 8.82808C47.8911 8.86744 47.8675 8.90744 47.844 8.94807C47.7871 9.04646 47.7308 9.1486 47.6751 9.25454L47.5929 9.41099L47.6859 9.56149C47.7219 9.61979 47.7576 9.67702 47.7931 9.73322L47.7652 9.80165L47.4363 9.25827C46.9073 8.38404 45.9266 7.3555 44.7399 6.38807L44.3266 6.05111L44.8251 5.85565C46.648 5.14083 47.4869 4.25155 47.4869 3.158C47.4869 1.86836 46.3091 0.877299 44.3893 0.877299C42.2975 0.877299 40.9865 2.05754 40.9865 3.7595C40.9865 4.70451 41.3913 5.4751 42.4178 6.46832L42.7907 6.82911L42.2941 6.98953C40.1221 7.69104 39.0975 8.79023 39.0975 10.3009C39.0975 11.9958 40.3972 13.1643 42.3858 13.1643C44.0001 13.1643 45.1833 12.4915 46.071 11.1797L46.3557 10.7591L46.6114 11.1974C47.5036 12.7267 48.1107 13.1643 49.2551 13.1643C49.9166 13.1643 50.5864 12.8929 51.2788 12.3429C51.6141 12.2941 51.9215 12.1457 52.4101 11.8196L52.3617 11.7493L52.3844 11.7294L52.2914 11.6469L52.2317 11.5603L52.2125 11.5771L52.148 11.5199C51.8538 11.8419 51.5644 12.1161 51.2788 12.3429C51.1866 12.3564 51.0923 12.3623 50.9915 12.3623C49.8972 12.3623 49.0129 11.6672 47.7931 9.73322L48.0046 9.21465C48.2833 8.53127 48.6036 7.98063 48.9449 7.56147C49.1195 7.4124 49.2988 7.28835 49.4831 7.18821L49.6631 7.09038L49.8275 7.21189L49.9038 7.26828L50.0872 7.40376L50.0147 7.61797C49.9921 7.68469 49.9854 7.70631 49.9805 7.72784C49.9759 7.74856 49.9738 7.76839 49.9738 7.80086C49.9738 8.35969 50.4021 8.80336 50.9533 8.80336C51.5309 8.80336 51.99 8.33334 51.99 7.74447C51.99 7.02212 51.4896 6.55399 50.6671 6.55399C50.0957 6.55399 49.4932 6.88807 48.9449 7.56147C48.5813 7.8719 48.2384 8.2908 47.9148 8.82808Z" fill="black"/>
<path fill-rule="evenodd" clip-rule="evenodd" d="M42.2675 6.70424L42.4786 6.51514L42.6923 6.70153C44.11 7.93855 45.6828 9.68433 46.4349 10.8884L46.5515 11.075L46.4135 11.2469C45.7226 12.1077 44.857 12.5501 43.8934 12.5501C42.1357 12.5501 40.9231 11.3979 40.9231 9.64282C40.9231 8.46705 41.3594 7.51745 42.2675 6.70424ZM45.9146 10.8583L45.8932 11.2168C45.8547 11.1552 45.8139 11.0919 45.7708 11.0273C45.8195 10.9734 45.8674 10.9171 45.9146 10.8583ZM42.4893 7.36442C41.8547 8.01099 41.5591 8.73836 41.5591 9.64282C41.5591 11.0467 42.482 11.9235 43.8934 11.9235C44.593 11.9235 45.2274 11.6287 45.7708 11.0273C45.0552 9.95274 43.7297 8.4805 42.4893 7.36442ZM42.4893 7.36442C42.5544 7.29808 42.623 7.2326 42.6953 7.16786L42.2705 7.17057C42.3431 7.23384 42.416 7.29851 42.4893 7.36442Z" fill="black"/>
<path fill-rule="evenodd" clip-rule="evenodd" d="M44.7712 6.02455L44.5472 6.21873L44.3362 6.01089C42.925 4.62065 42.4495 3.79685 42.4495 2.70666C42.4495 1.41214 43.1799 0.55127 44.2749 0.55127C45.4643 0.55127 46.1385 1.43878 46.1385 2.89463C46.1385 4.28373 45.7681 5.16037 44.7712 6.02455ZM44.2749 1.17784C43.5589 1.17784 43.0855 1.73581 43.0855 2.70666C43.0855 3.54497 43.4383 4.2042 44.5705 5.35259C44.5018 5.41976 44.4287 5.48682 44.351 5.55418L44.786 5.56784C44.7112 5.49418 44.6394 5.42248 44.5705 5.35259C45.2568 4.68149 45.5025 3.99947 45.5025 2.89463C45.5025 1.75188 45.0664 1.17784 44.2749 1.17784Z" fill="black"/>
</g>
</g>
<defs>
<clipPath id="clip0_961_205">
<rect width="90" height="16.9173" fill="white"/>
</clipPath>
<clipPath id="clip1_961_205">
<rect width="14.8872" height="14.2105" fill="white" transform="translate(38.1626)"/>
</clipPath>
</defs>
</svg>
